#N canvas -767 105 1951 1173 10;
#X obj 348 39 tgl 15 0 empty empty empty 17 7 0 10 #fcfcfc #000000 #000000 0 1;
#X obj 28 21 tgl 15 0 empty empty empty 17 7 0 10 #fcfcfc #000000 #000000 0 1;
#X msg 28 46 \; pd dsp \$1;
#N canvas 727 97 450 300 oscSend 0;
#X msg 158 207 disconnect;
#X obj 61 253 netsend -u -b;
#X obj 59 55 list prepend send;
#X obj 59 80 list trim;
#X msg 150 175 connect 127.0.0.1 8001;
#X obj 59 29 r oscOut;
#X text 301 163 send to port 8001;
#X msg 147 148 connect localhost 8001;
#X obj 147 108 loadbang;
#X connect 0 0 1 0;
#X connect 2 0 3 0;
#X connect 3 0 1 0;
#X connect 4 0 1 0;
#X connect 5 0 2 0;
#X connect 7 0 1 0;
#X connect 8 0 7 0;
#X restore 24 104 pd oscSend;
#X obj 349 7 r oscplayseq;
#X obj 233 348 soundfiler;
#X obj 235 292 bng 15 250 50 0 empty empty empty 17 7 0 10 #fcfcfc #000000 #000000;
#X obj 235 265 loadbang;
#X msg 750 105 0;
#N canvas 212 36 450 300 (subpatch) 0;
#X array soundData1 395664 float 0;
#X coords 0 1 395663 -1 300 100 1 0 0;
#X restore 234 580 graph;
#X obj 33 370 bng 15 250 50 0 empty empty empty 17 7 0 10 #fcfcfc #000000 #000000;
#X floatatom 234 372 15 0 0 0 - - - 0;
#X obj 234 467 * 1000;
#X floatatom 234 493 5 0 0 0 - - - 0;
#X obj 48 323 metro 1000;
#X obj 48 289 tgl 15 0 empty empty empty 17 7 0 10 #fcfcfc #000000 #000000 0 1;
#X floatatom 105 299 5 0 0 0 - - - 0;
#X floatatom 234 433 5 0 0 0 - - - 0;
#X obj 52 697 dac~;
#X obj 62 600 *~;
#X obj 76 463 vsl 15 128 0 1 0 0 empty empty empty 0 -9 0 10 #fcfcfc #000000 #000000 0 1;
#X obj 234 398 / 44100;
#X obj 235 524 s loopTime1;
#X obj 106 275 r loopTime1;
#X obj 62 417 tabplay~ soundData1;
#X msg 235 321 read -resize BassAndKick.wav soundData1;
#X obj 819 366 soundfiler;
#X obj 821 310 bng 15 250 50 0 empty empty empty 17 7 0 10 #fcfcfc #000000 #000000;
#X obj 821 283 loadbang;
#N canvas 212 36 450 300 (subpatch) 0;
#X array soundData2 395664 float 0;
#X coords 0 1 395663 -1 300 100 1 0 0;
#X restore 820 598 graph;
#X obj 619 388 bng 15 250 50 0 empty empty empty 17 7 0 10 #fcfcfc #000000 #000000;
#X floatatom 820 390 15 0 0 0 - - - 0;
#X obj 820 485 * 1000;
#X floatatom 820 511 5 0 0 0 - - - 0;
#X obj 634 341 metro 1000;
#X obj 634 307 tgl 15 0 empty empty empty 17 7 0 10 #fcfcfc #000000 #000000 0 1;
#X floatatom 691 317 5 0 0 0 - - - 0;
#X floatatom 820 451 5 0 0 0 - - - 0;
#X obj 649 707 dac~;
#X obj 648 618 *~;
#X obj 820 416 / 44100;
#X obj 692 293 r loopTime2;
#X obj 648 435 tabplay~ soundData2;
#X obj 821 542 s loopTime2;
#X msg 821 339 read -resize Snare.wav soundData2;
#X obj 544 117 tgl 15 0 empty empty empty 17 7 0 10 #fcfcfc #000000 #000000 0 1;
#X obj 1398 386 soundfiler;
#X obj 1400 330 bng 15 250 50 0 empty empty empty 17 7 0 10 #fcfcfc #000000 #000000;
#X obj 1400 303 loadbang;
#N canvas 212 36 450 300 (subpatch) 0;
#X array soundData3 395664 float 0;
#X coords 0 1 395663 -1 300 100 1 0 0;
#X restore 1399 618 graph;
#X obj 1195 391 bng 15 250 50 0 empty empty empty 17 7 0 10 #fcfcfc #000000 #000000;
#X floatatom 1399 410 15 0 0 0 - - - 0;
#X obj 1399 505 * 1000;
#X floatatom 1399 531 5 0 0 0 - - - 0;
#X obj 1210 344 metro 1000;
#X obj 1210 310 tgl 15 0 empty empty empty 17 7 0 10 #fcfcfc #000000 #000000 0 1;
#X floatatom 1267 320 5 0 0 0 - - - 0;
#X floatatom 1399 471 5 0 0 0 - - - 0;
#X obj 1215 681 dac~;
#X obj 1224 621 *~;
#X obj 1399 436 / 44100;
#X obj 1400 562 s loopTime3;
#X obj 1268 296 r loopTime3;
#X msg 1400 359 read -resize Pad.wav soundData3;
#X obj 1224 438 tabplay~ soundData3;
#X msg 629 109 stop;
#X obj 1954 393 soundfiler;
#X obj 1956 337 bng 15 250 50 0 empty empty empty 17 7 0 10 #fcfcfc #000000 #000000;
#X obj 1956 310 loadbang;
#N canvas 212 36 450 300 (subpatch) 0;
#X array soundData4 791327 float 0;
#X coords 0 1 791326 -1 300 100 1 0 0;
#X restore 1955 625 graph;
#X obj 1754 415 bng 15 250 50 0 empty empty empty 17 7 0 10 #fcfcfc #000000 #000000;
#X floatatom 1955 417 15 0 0 0 - - - 0;
#X obj 1955 512 * 1000;
#X floatatom 1955 538 5 0 0 0 - - - 0;
#X obj 1769 368 metro 1000;
#X obj 1769 334 tgl 15 0 empty empty empty 17 7 0 10 #fcfcfc #000000 #000000 0 1;
#X floatatom 1826 344 5 0 0 0 - - - 0;
#X floatatom 1955 478 5 0 0 0 - - - 0;
#X obj 1750 710 dac~;
#X obj 1783 645 *~;
#X obj 1955 443 / 44100;
#X msg 1956 366 read -resize Lead.wav soundData4;
#X obj 1956 569 s loopTime4;
#X obj 1827 320 r loopTime4;
#X obj 1783 462 tabplay~ soundData4;
#X text 36 855 Plays at all times;
#X text 38 813 Bass + Kick;
#X text 626 792 Snare;
#X text 527 835 Plays when movement key is held;
#X text 1195 794 Pad;
#X text 1089 830 Plays when in air (not grounded);
#X text 1724 806 Lead;
#X text 1609 839 Plays when wall running or grappling;
#X msg 156 463 1;
#X obj 1303 463 r flying;
#X floatatom 1278 483 5 0 0 0 - - - 0;
#X obj 1279 508 select 0 1;
#X obj 1276 598 vline~;
#X obj 1250 529 bng 15 250 50 0 empty empty empty 17 7 0 10 #fcfcfc #000000 #000000;
#X obj 1293 529 bng 15 250 50 0 empty empty empty 17 7 0 10 #fcfcfc #000000 #000000;
#X msg 1245 558 0 1000;
#X msg 1317 557 1 1000;
#N canvas 1097 663 970 604 oscReceive 1;
#X obj 55 184 netreceive -u -b;
#X msg 78 143 listen 0;
#X text 152 143 stop listening;
#X text 64 58 packets from network;
#X text 173 177 UDP packets \, binary output, f 13;
#X obj 45 314 print;
#X obj 45 272 oscparse;
#X text 150 114 listen on port 8000;
#X obj 177 269 oscparse;
#X obj 177 293 list trim;
#X floatatom 93 410 5 0 0 0 - - - 0;
#X text 241 267 Parse the OSC message;
#X obj 177 319 route unity;
#X msg 66 115 listen 8000;
#X obj 66 84 loadbang;
#X floatatom 197 412 5 0 0 0 - - - 0;
#X floatatom 311 413 5 0 0 0 - - - 0;
#X obj 310 390 route playseq;
#X obj 311 440 s oscplayseq;
#X obj 196 389 route notgrounded;
#X obj 200 437 s flying;
#X obj 92 387 route ismoving;
#X obj 93 437 s moving;
#X floatatom 403 414 5 0 0 0 - - - 0;
#X obj 402 391 route isgaming;
#X obj 405 439 s gaming;
#X floatatom 502 414 5 0 0 0 - - - 0;
#X obj 501 391 route fallingvelocity;
#X obj 504 439 s falling;
#X connect 0 0 6 0;
#X connect 0 0 8 0;
#X connect 1 0 0 0;
#X connect 6 0 5 0;
#X connect 8 0 9 0;
#X connect 9 0 12 0;
#X connect 10 0 22 0;
#X connect 12 0 17 0;
#X connect 12 0 19 0;
#X connect 12 0 21 0;
#X connect 12 0 24 0;
#X connect 12 0 27 0;
#X connect 13 0 0 0;
#X connect 14 0 13 0;
#X connect 15 0 20 0;
#X connect 16 0 18 0;
#X connect 17 0 16 0;
#X connect 19 0 15 0;
#X connect 21 0 10 0;
#X connect 23 0 25 0;
#X connect 24 0 23 0;
#X connect 26 0 28 0;
#X connect 27 0 26 0;
#X restore 25 136 pd oscReceive;
#X floatatom 691 482 5 0 0 0 - - - 0;
#X obj 692 507 select 0 1;
#X obj 689 597 vline~;
#X obj 663 528 bng 15 250 50 0 empty empty empty 17 7 0 10 #fcfcfc #000000 #000000;
#X obj 706 528 bng 15 250 50 0 empty empty empty 17 7 0 10 #fcfcfc #000000 #000000;
#X msg 658 557 0 1000;
#X msg 730 556 1 1000;
#X obj 716 462 r moving;
#X floatatom 1856 507 5 0 0 0 - - - 0;
#X obj 1857 532 select 0 1;
#X obj 1854 622 vline~;
#X obj 1828 553 bng 15 250 50 0 empty empty empty 17 7 0 10 #fcfcfc #000000 #000000;
#X obj 1871 553 bng 15 250 50 0 empty empty empty 17 7 0 10 #fcfcfc #000000 #000000;
#X msg 1823 582 0 1000;
#X msg 1895 581 1 1000;
#X obj 1881 487 r gaming;
#X obj 2298 323 noise~;
#X obj 2430 785 dac~;
#X obj 2288 503 bp~, f 8;
#X obj 2282 427 bp~, f 8;
#X floatatom 2315 372 5 0 0 0 - - - 0;
#X floatatom 2368 372 5 0 0 0 - - - 0;
#X obj 2476 323 noise~;
#X obj 2466 503 bp~, f 8;
#X obj 2469 422 bp~, f 8;
#X floatatom 2493 372 5 0 0 0 - - - 0;
#X floatatom 2546 372 5 0 0 0 - - - 0;
#X obj 2684 330 noise~;
#X obj 2674 510 bp~, f 8;
#X obj 2677 429 bp~, f 8;
#X floatatom 2701 379 5 0 0 0 - - - 0;
#X floatatom 2754 379 5 0 0 0 - - - 0;
#X obj 2917 394 hsl 162 19 1 500 0 0 empty empty empty -2 -10 0 12 #fcfcfc #000000 #000000 0 1;
#X obj 2914 309 hsl 162 19 1 200 0 0 empty empty empty -2 -10 0 12 #fcfcfc #000000 #000000 0 1;
#X obj 2450 620 *~;
#X obj 3378 373 r falling;
#X obj 2655 576 r flying;
#X floatatom 2630 596 5 0 0 0 - - - 0;
#X obj 2631 621 select 0 1;
#X obj 2628 711 vline~;
#X obj 2602 642 bng 15 250 50 0 empty empty empty 17 7 0 10 #fcfcfc #000000 #000000;
#X obj 2645 642 bng 15 250 50 0 empty empty empty 17 7 0 10 #fcfcfc #000000 #000000;
#X msg 2597 671 0 1000;
#X msg 2669 670 1 1000;
#X obj 3205 362 * 20;
#X connect 0 0 45 0;
#X connect 1 0 2 0;
#X connect 4 0 0 0;
#X connect 5 0 11 0;
#X connect 6 0 25 0;
#X connect 6 0 93 0;
#X connect 7 0 6 0;
#X connect 8 0 24 0;
#X connect 8 0 42 0;
#X connect 8 0 64 0;
#X connect 8 0 84 0;
#X connect 10 0 24 0;
#X connect 11 0 21 0;
#X connect 12 0 13 0;
#X connect 13 0 22 0;
#X connect 14 0 10 0;
#X connect 15 0 14 0;
#X connect 16 0 14 1;
#X connect 17 0 12 0;
#X connect 19 0 18 0;
#X connect 19 0 18 1;
#X connect 20 0 19 1;
#X connect 21 0 17 0;
#X connect 23 0 16 0;
#X connect 24 0 19 0;
#X connect 25 0 5 0;
#X connect 26 0 31 0;
#X connect 27 0 44 0;
#X connect 28 0 27 0;
#X connect 30 0 42 0;
#X connect 31 0 40 0;
#X connect 32 0 33 0;
#X connect 33 0 43 0;
#X connect 34 0 30 0;
#X connect 35 0 34 0;
#X connect 36 0 34 1;
#X connect 37 0 32 0;
#X connect 39 0 38 0;
#X connect 39 0 38 1;
#X connect 40 0 37 0;
#X connect 41 0 36 0;
#X connect 42 0 39 0;
#X connect 44 0 26 0;
#X connect 45 0 14 0;
#X connect 45 0 34 0;
#X connect 45 0 54 0;
#X connect 45 0 74 0;
#X connect 46 0 51 0;
#X connect 47 0 63 0;
#X connect 48 0 47 0;
#X connect 50 0 64 0;
#X connect 51 0 60 0;
#X connect 52 0 53 0;
#X connect 53 0 61 0;
#X connect 54 0 50 0;
#X connect 55 0 54 0;
#X connect 56 0 54 1;
#X connect 57 0 52 0;
#X connect 59 0 58 0;
#X connect 59 0 58 1;
#X connect 60 0 57 0;
#X connect 62 0 56 0;
#X connect 63 0 46 0;
#X connect 64 0 59 0;
#X connect 65 0 24 0;
#X connect 65 0 42 0;
#X connect 65 0 64 0;
#X connect 65 0 84 0;
#X connect 66 0 71 0;
#X connect 67 0 81 0;
#X connect 68 0 67 0;
#X connect 70 0 84 0;
#X connect 71 0 80 0;
#X connect 72 0 73 0;
#X connect 73 0 82 0;
#X connect 74 0 70 0;
#X connect 75 0 74 0;
#X connect 76 0 74 1;
#X connect 77 0 72 0;
#X connect 79 0 78 0;
#X connect 79 0 78 1;
#X connect 80 0 77 0;
#X connect 81 0 66 0;
#X connect 83 0 76 0;
#X connect 84 0 79 0;
#X connect 93 0 20 0;
#X connect 94 0 95 0;
#X connect 95 0 96 0;
#X connect 96 0 98 0;
#X connect 96 1 99 0;
#X connect 97 0 59 1;
#X connect 98 0 100 0;
#X connect 99 0 101 0;
#X connect 100 0 97 0;
#X connect 101 0 97 0;
#X connect 103 0 104 0;
#X connect 104 0 106 0;
#X connect 104 1 107 0;
#X connect 105 0 39 1;
#X connect 106 0 108 0;
#X connect 107 0 109 0;
#X connect 108 0 105 0;
#X connect 109 0 105 0;
#X connect 110 0 103 0;
#X connect 111 0 112 0;
#X connect 112 0 114 0;
#X connect 112 1 115 0;
#X connect 113 0 79 1;
#X connect 114 0 116 0;
#X connect 115 0 117 0;
#X connect 116 0 113 0;
#X connect 117 0 113 0;
#X connect 118 0 111 0;
#X connect 119 0 122 0;
#X connect 121 0 137 0;
#X connect 122 0 121 0;
#X connect 123 0 122 1;
#X connect 123 0 121 1;
#X connect 124 0 122 2;
#X connect 124 0 121 2;
#X connect 125 0 127 0;
#X connect 126 0 137 0;
#X connect 127 0 126 0;
#X connect 128 0 127 1;
#X connect 128 0 126 1;
#X connect 129 0 127 2;
#X connect 129 0 126 2;
#X connect 130 0 132 0;
#X connect 131 0 137 0;
#X connect 132 0 131 0;
#X connect 133 0 132 1;
#X connect 133 0 131 1;
#X connect 134 0 132 2;
#X connect 134 0 131 2;
#X connect 135 0 123 0;
#X connect 135 0 128 0;
#X connect 135 0 133 0;
#X connect 136 0 124 0;
#X connect 136 0 129 0;
#X connect 136 0 134 0;
#X connect 137 0 120 1;
#X connect 137 0 120 0;
#X connect 138 0 147 0;
#X connect 139 0 140 0;
#X connect 140 0 141 0;
#X connect 141 0 143 0;
#X connect 141 1 144 0;
#X connect 142 0 137 1;
#X connect 143 0 145 0;
#X connect 144 0 146 0;
#X connect 145 0 142 0;
#X connect 146 0 142 0;
#X connect 147 0 135 0;
